<?xml version="1.0" ?><svg enable-background="new 0 0 512 512" id="Layer_1" version="1.1" viewBox="0 0 512 512" xml:space="preserve" xmlns="http://www.w3.org/2000/svg" xmlns:xlink="http://www.w3.org/1999/xlink"><g><g><linearGradient gradientUnits="userSpaceOnUse" id="SVGID_1_" x1="0.0000038" x2="512" y1="256" y2="256"><stop offset="0" style="stop-color:#A364AB"/><stop offset="1" style="stop-color:#8C3D96"/></linearGradient><circle cx="256" cy="256" fill="url(#SVGID_1_)" r="256"/><linearGradient gradientUnits="userSpaceOnUse" id="SVGID_2_" x1="42.6666679" x2="469.3333435" y1="256.0005188" y2="256.0005188"><stop offset="0" style="stop-color:#8C3D96"/><stop offset="1" style="stop-color:#A364AB"/></linearGradient><path d="M256,469.3338623c-117.6314697,0-213.3333282-95.7018738-213.3333282-213.3333435    c0-117.6309204,95.7018585-213.333313,213.3333282-213.333313c117.636261,0,213.3333435,95.7024002,213.3333435,213.333313    C469.3333435,373.6319885,373.636261,469.3338623,256,469.3338623z" fill="url(#SVGID_2_)"/></g><g><path d="M291.2485352,261.796814c0-30.2757416,5.5670471-56.8064117,14.8097229-75.7360077    c-54.3270569,31.2170563-101.9659882,33.2106628-125.8683929,34.6506653    c-13.4400024,0.8096008-25.8149261,9.5557251-32.2496033,23.2517242    c-5.2447968,11.1648102-5.2133331,24.3253479-0.1461334,35.5690613    c6.3856049,14.172821,18.8330688,23.4656067,32.3957367,23.3488159c2.2453308-0.0197449,4.9338684,0.0144043,7.9237366,0.1157227    c-4.8421326,21.7904053,7.6394653,44.84375,30.0879974,54.5717468c6.8607941,2.9733276,14.0938721,4.4671936,21.2646484,4.4671936    c5.5886841,0,11.140152-0.9077454,16.4430847-2.738678c12.2629395-4.2287903,21.7429199-12.8517151,26.6917419-24.272522    c1.1519775-2.6565247,1.9338684-5.4389343,2.5296021-8.2623901c6.8730469,3.1754456,13.8709106,6.7509155,20.9482422,10.8085327    C296.8240051,318.6389465,291.2485352,292.0949402,291.2485352,261.796814z M273.4261475,331.0495911    c-3.8208008,8.8138733-11.1984253,15.4880066-20.7786865,18.7941284    c-9.7386627,3.3589478-20.5637207,2.8416138-30.4714661-1.4554443    c-18.5759888-8.0480042-28.741333-27.1994629-23.9328003-44.7909546    c19.0880127,1.5488281,46.6602783,6.1952209,77.550415,19.0576172    C275.3722534,325.5418701,274.5898743,328.3642578,273.4261475,331.0495911z" opacity="0.3"/><path d="M342.6239929,165.9642639c-16.5370483,0-30.7669373,22.5253296-37.3909302,55.0037384    c22.084259,0.5258636,39.8971863,18.6202698,39.8971863,40.8288116c0,22.2079773-17.813324,40.2981262-39.8977051,40.8239746    c6.6234436,32.4789429,20.8538513,55.0058899,37.391449,55.0058899C365.4757385,357.6266785,384,314.7210693,384,261.7951965    S365.4757385,165.9642639,342.6239929,165.9642639z" opacity="0.3"/></g><g><path d="M283.2485352,253.7967987c0-30.2757263,5.5670471-56.8063965,14.8097229-75.7359924    c-54.3270569,31.2170563-101.9659882,33.2106628-125.8683929,34.6506653    c-13.4400024,0.8096008-25.8149261,9.5557251-32.2496033,23.2517242    c-5.2447968,11.1648102-5.2133331,24.3253479-0.1461334,35.5690613    c6.3856049,14.172821,18.8330688,23.4656067,32.3957367,23.3488159c2.2453308-0.0197449,4.9338684,0.0144043,7.9237366,0.1157227    c-4.8421326,21.7904053,7.6394653,44.84375,30.0879974,54.5717468c6.8607941,2.9733276,14.0938721,4.4671936,21.2646484,4.4671936    c5.5886841,0,11.140152-0.9077454,16.4430847-2.738678c12.2629395-4.2287903,21.7429199-12.8517151,26.6917419-24.272522    c1.1519775-2.6565247,1.9338684-5.4389343,2.5296021-8.2623901c6.8730469,3.1754456,13.8709106,6.7509155,20.9482422,10.8085327    C288.8240051,310.6389465,283.2485352,284.0949402,283.2485352,253.7967987z M265.4261475,323.0495911    c-3.8208008,8.8138733-11.19841,15.4880066-20.7786865,18.7941284    c-9.7386627,3.3589478-20.5637207,2.8416138-30.4714661-1.4554443    c-18.5759888-8.0480042-28.741333-27.1994629-23.9328003-44.7909546    c19.0880127,1.5488281,46.6602783,6.1952209,77.550415,19.0576172    C267.3722534,317.5418701,266.5898743,320.3642578,265.4261475,323.0495911z" fill="#FFFFFF"/><path d="M334.6239929,157.9642639c-16.5370483,0-30.7669373,22.5253296-37.3909302,55.0037384    c22.084259,0.5258636,39.8971863,18.6202698,39.8971863,40.8287964c0,22.2079926-17.813324,40.2981415-39.8977051,40.8239899    c6.6234436,32.4789429,20.8538513,55.0058899,37.391449,55.0058899C357.4757385,349.6266785,376,306.7210693,376,253.7951965    S357.4757385,157.9642639,334.6239929,157.9642639z" fill="#FFFFFF"/></g></g></svg>